<?xml version="1.0" encoding="UTF-8" standalone="no"?>
<!-- Created with Inkscape (http://www.inkscape.org/) -->

<svg
   width="121mm"
   height="121mm"
   viewBox="0 0 121 121"
   version="1.1"
   id="svg1"
   inkscape:version="1.4.2 (f4327f4, 2025-05-13)"
   sodipodi:docname="white-bat-logo.svg"
   xmlns:inkscape="http://www.inkscape.org/namespaces/inkscape"
   xmlns:sodipodi="http://sodipodi.sourceforge.net/DTD/sodipodi-0.dtd"
   xmlns:xlink="http://www.w3.org/1999/xlink"
   xmlns="http://www.w3.org/2000/svg"
   xmlns:svg="http://www.w3.org/2000/svg">
  <sodipodi:namedview
     id="namedview1"
     pagecolor="#505050"
     bordercolor="#eeeeee"
     borderopacity="1"
     inkscape:showpageshadow="0"
     inkscape:pageopacity="0"
     inkscape:pagecheckerboard="0"
     inkscape:deskcolor="#505050"
     inkscape:document-units="mm"
     inkscape:zoom="0.5"
     inkscape:cx="146"
     inkscape:cy="297"
     inkscape:window-width="1366"
     inkscape:window-height="705"
     inkscape:window-x="-8"
     inkscape:window-y="-8"
     inkscape:window-maximized="1"
     inkscape:current-layer="layer1" />
  <defs
     id="defs1">
    <linearGradient
       id="linearGradient95"
       inkscape:collect="always">
      <stop
         style="stop-color:#000000;stop-opacity:1;"
         offset="0"
         id="stop95" />
      <stop
         style="stop-color:#000000;stop-opacity:0;"
         offset="1"
         id="stop96" />
    </linearGradient>
    <linearGradient
       id="linearGradient94">
      <stop
         style="stop-color:#1f2633;stop-opacity:1;"
         offset="0"
         id="stop93" />
      <stop
         style="stop-color:#332741;stop-opacity:1;"
         offset="1"
         id="stop94" />
    </linearGradient>
    <linearGradient
       id="linearGradient88">
      <stop
         style="stop-color:#000000;stop-opacity:1;"
         offset="0"
         id="stop91" />
      <stop
         style="stop-color:#000000;stop-opacity:0;"
         offset="1"
         id="stop92" />
    </linearGradient>
    <linearGradient
       id="swatch61"
       inkscape:swatch="solid">
      <stop
         style="stop-color:#477db0;stop-opacity:1;"
         offset="0"
         id="stop61" />
    </linearGradient>
    <linearGradient
       inkscape:collect="always"
       xlink:href="#linearGradient94"
       id="linearGradient91"
       x1="105"
       y1="-0.5"
       x2="105"
       y2="120.5"
       gradientUnits="userSpaceOnUse"
       gradientTransform="translate(-44.499999,0.50023805)" />
    <linearGradient
       inkscape:collect="always"
       xlink:href="#linearGradient95"
       id="linearGradient96"
       x1="103.94406"
       y1="-0.49088091"
       x2="106.0558"
       y2="120.49084"
       gradientUnits="userSpaceOnUse"
       gradientTransform="translate(-44.499999,0.50023805)" />
  </defs>
  <g
     inkscape:label="Layer 1"
     inkscape:groupmode="layer"
     id="layer1"
     transform="translate(0,-2.4032593e-4)">
    <circle
       style="fill:url(#linearGradient91);fill-opacity:1;fill-rule:nonzero;stroke:url(#linearGradient96);stroke-width:1;stroke-linecap:round;stroke-linejoin:round;stroke-miterlimit:27.4;stroke-dasharray:none;stroke-dashoffset:0"
       id="path88"
       cx="60.5"
       cy="60.50024"
       r="60" />
    <path
       id="path99"
       style="fill:#ffffff;fill-opacity:1;fill-rule:nonzero;stroke:#838383;stroke-width:3.77503;stroke-linecap:round;stroke-linejoin:round;stroke-miterlimit:27.4;stroke-dasharray:none;stroke-dashoffset:0;stroke-opacity:0.603704"
       d="m 37.838271,18.014886 c -0.832773,0.366729 -1.662785,0.774174 -2.488103,1.222315 -0.825321,0.448128 -1.645977,0.937072 -2.459119,1.467557 l -0.392947,0.255833 c -14.117673,9.210152 -20.539478,27.312724 -14.399115,40.587736 0.885573,1.914542 1.983007,3.621229 3.254488,5.112205 a 40.137326,32.017084 0 0 0 -1.307592,8.105285 40.137326,32.017084 0 0 0 40.137355,32.017053 40.137326,32.017084 0 0 0 40.137382,-32.017053 40.137326,32.017084 0 0 0 -0.768612,-6.234749 c 2.055232,-1.876693 3.779832,-4.211892 5.061482,-6.982741 6.14037,-13.275012 -0.28139,-31.377584 -14.399112,-40.587736 l -0.39295,-0.255833 c -0.81314,-0.530485 -1.6338,-1.019429 -2.45912,-1.467557 -0.82532,-0.448141 -1.65589,-0.855586 -2.48866,-1.222315 -0.58095,2.955224 -1.34958,5.936171 -2.3142,8.898982 l -1.51884,4.661848 c -1.63514,5.022313 -3.68393,9.541837 -6.00845,13.44434 A 40.137326,32.017084 0 0 0 60.183238,42.748212 40.137326,32.017084 0 0 0 47.335311,44.433145 C 45.152928,40.666736 43.225628,36.348132 41.671867,31.575716 L 40.153033,26.913868 C 39.188425,23.951057 38.41921,20.97011 37.838271,18.014886 Z m -1.79752,46.618488 a 10.785782,9.7072038 0 0 1 9.388353,4.351951 10.785782,9.7072038 0 0 1 -0.719009,11.56823 L 36.42868,74.334411 H 25.642999 a 10.785782,9.7072038 0 0 1 7.682798,-9.296944 10.785782,9.7072038 0 0 1 2.714954,-0.404093 z m 49.382457,0.0012 a 10.785782,9.7072038 0 0 1 2.7144,0.404095 10.785782,9.7072038 0 0 1 7.68336,9.296944 h -10.78624 l -8.28086,6.219142 a 10.785782,9.7072038 0 0 1 -0.71956,-11.568229 10.785782,9.7072038 0 0 1 9.3889,-4.351952 z" />
    <path
       id="path101"
       style="fill:#ff8080;stroke:#000000;stroke-width:2.15715;stroke-linecap:round;stroke-linejoin:round;stroke-miterlimit:27.4;stroke-dasharray:none;stroke-opacity:0.101852"
       d="m 52.837122,75.004372 a 16.038121,13.779543 89.999992 0 0 -5.238175,17.960715 16.038121,13.779543 89.999992 0 0 5.729775,8.698333 l 0.534507,-13.889684 c 0,0 4.197709,6.24273 -0.24635,14.097594 a 16.038121,13.779543 89.999992 0 0 7.123169,2.30918 16.038121,13.779543 89.999992 0 0 6.79937,-2.08847 c -4.69258,-7.97941 -0.39964,-14.363452 -0.39964,-14.363452 l 0.54847,14.264242 a 16.038121,13.779543 89.999992 0 0 6.19405,-9.027187 16.038121,13.779543 89.999992 0 0 -5.23761,-17.960714 l -7.90408,13.137786 z" />
    <path
       style="fill:none;fill-opacity:1;fill-rule:nonzero;stroke:none;stroke-width:3.23573;stroke-linecap:round;stroke-linejoin:round;stroke-miterlimit:27.4;stroke-dasharray:none;stroke-dashoffset:0;stroke-opacity:0.644444"
       d="m 95.620088,58.169824 c 0,-0.3715 -0.0491,-0.746255 0,-1.114496 0.28521,-2.139102 0.39807,-0.399198 0.47764,-2.547415 0.0884,-2.385594 -0.12996,-7.592002 -0.31843,-9.234389 -0.1365,-1.189535 -0.56617,-2.327637 -0.79607,-3.502697 -1.9904,-10.173188 1.56748,5.037985 -2.70662,-11.304165 -0.37605,-1.437825 -0.57196,-3.691328 -1.27372,-5.094836"
       id="path102" />
    <path
       id="path103"
       style="fill:#ff8080;fill-opacity:1;fill-rule:nonzero;stroke:#000000;stroke-width:1.07858;stroke-linecap:round;stroke-linejoin:round;stroke-miterlimit:27.4;stroke-dasharray:none;stroke-dashoffset:0;stroke-opacity:0.235185"
       d="m 32.397219,26.709871 c -3.602572,1.013227 -8.267435,8.719073 -9.682088,12.609397 -2.251605,6.191958 -4.953422,17.112305 1.576244,23.754583 0,0 -2.138978,-10.808023 0.675535,-11.483509 2.814511,-0.675486 4.502998,1.576245 4.502998,1.576245 l -2.927311,-4.278378 c 0,0 9.569772,-18.575748 5.854622,-22.178338 z m 57.821619,0 c -3.71518,3.60259 5.85407,22.178338 5.85407,22.178338 l -2.92676,4.278378 c 0,0 1.68847,-2.251731 4.503,-1.576245 2.814532,0.675486 0.67553,11.482952 0.67553,11.482952 6.529712,-6.642278 3.827872,-17.562626 1.57625,-23.754584 -1.41467,-3.890323 -6.0795,-11.595612 -9.68209,-12.608839 z" />
  </g>
</svg>
