<?xml version="1.0" encoding="UTF-8" standalone="no"?>
<!-- Created with Inkscape (http://www.inkscape.org/) -->

<svg
   version="1.1"
   id="svg1"
   width="490"
   height="348"
   viewBox="0 0 490 348"
   sodipodi:docname="coffeecup_logo.svg"
   inkscape:version="1.4.2 (f4327f4, 2025-05-13)"
   xmlns:inkscape="http://www.inkscape.org/namespaces/inkscape"
   xmlns:sodipodi="http://sodipodi.sourceforge.net/DTD/sodipodi-0.dtd"
   xmlns="http://www.w3.org/2000/svg"
   xmlns:svg="http://www.w3.org/2000/svg">
  <defs
     id="defs1" />
  <sodipodi:namedview
     id="namedview1"
     pagecolor="#505050"
     bordercolor="#eeeeee"
     borderopacity="1"
     inkscape:showpageshadow="0"
     inkscape:pageopacity="0"
     inkscape:pagecheckerboard="0"
     inkscape:deskcolor="#505050"
     inkscape:zoom="1.6632653"
     inkscape:cx="245"
     inkscape:cy="136.77914"
     inkscape:window-width="1366"
     inkscape:window-height="697"
     inkscape:window-x="-8"
     inkscape:window-y="-8"
     inkscape:window-maximized="1"
     inkscape:current-layer="g1" />
  <g
     inkscape:groupmode="layer"
     inkscape:label="Image"
     id="g1">
    <g
       id="g230">
      <path
         style="fill:#fefefe"
         d="m 140,329 v -5 h -10 -10 v -5 -5 h -10 -10 v -5 -5 H 90 80 v -5 -5 h -5 -5 v -5 -5 h -5 -5 v -5 -5 h -5 -5 v -5 -5 h -5 -5 v -10 -10 h -5 -5 v -10 -10 h -5 -5 v -15 -15 h 5 5 v -15 -15 h 5 5 v -10 -10 h 5 5 v -10 -10 h 5 5 v -10 -10 h 5 5 V 94 84 h 5 5 V 74 64 h 5 5 V 54 44 h 5 5 V 34 24 h 10 10 v -5 -5 h 30 30 v 5 5 h 15 15 v 5 5 h 10 10 v 5 5 h 10 10 v 5 5 h 5 5 v 5 5 h 5 5 v 5 5 h 5 5 v 5 5 h 5 5 v 5 5 h 5 5 v 5 5 h 5 5 v 5 5 h 25 25 v 5 5 h 15 15 v 5 5 h 10 10 v 5 5 h 5 5 v 5 5 h 5 5 v 10 10 h -5 -5 v 5 5 h -20 -20 v -5 -5 h -10 -10 v 10 10 h -5 -5 v 5 5 h -10 -10 v 5 5 h -5 -5 v 5 5 h -5 -5 v 5 5 h -5 -5 v 5 5 h -5 -5 v 5 5 h -5 -5 v 5 5 h -5 -5 v 5 5 h -5 -5 v 5 5 h -5 -5 v 5 5 h -5 -5 v 5 5 h -5 -5 v 5 5 h -5 -5 v 5 5 h -10 -10 v 5 5 H 170 140 Z M 430,229 v -5 h -5 -5 v -15 -15 h 20 20 v 5 5 h 5 5 v 15 15 h -20 -20 z"
         id="path250" />
      <path
         style="fill:#fafafa"
         d="m 140,329 v -5 h -10 -10 v -5 -5 h -10 -10 v -5 -5 H 90 80 v -5 -5 h -5 -5 v -5 -5 h -5 -5 v -5 -5 h -5 -5 v -5 -5 h -5 -5 v -10 -10 h -5 -5 v -10 -10 h -5 -5 v -5 -5 h 5 5 v 5 5 h 20 20 v -5 -5 h 5 5 v -5 -5 h 5 5 v -5 -5 h 5 5 v -10 -10 h 5 5 v -15 -15 h 5 5 v -15 -15 h -5 -5 V 99 84 h 5 5 v 10 10 h 5 5 v 5 5 h 5 5 v 5 5 h 5 5 v 5 5 h 5 5 v 5 5 h 5 5 v -10 -10 h -5 -5 v -10 -10 h -5 -5 V 94 84 h -5 -5 V 74 64 h -5 -5 V 49 34 h 5 5 v -5 -5 h 10 10 v 5 5 h 10 10 v 5 5 h 15 15 v 5 5 h 10 10 v 5 5 h 5 5 v 5 5 h 10 10 v -5 -5 h -5 -5 v -5 -5 h -5 -5 v -5 -5 h 5 5 v 5 5 h 5 5 v 5 5 h 5 5 v 5 5 h 5 5 v 5 5 h 5 5 v 5 5 h 5 5 v 5 5 h 5 5 v 5 5 h 25 25 v 5 5 h 15 15 v 5 5 h 10 10 v 5 5 h 5 5 v 5 5 h 5 5 v 10 10 h -5 -5 v 5 5 h -20 -20 v -5 -5 h -10 -10 v 10 10 h -5 -5 v 5 5 h -10 -10 v 5 5 h -5 -5 v 5 5 h -5 -5 v 5 5 h -5 -5 v 5 5 h -5 -5 v 5 5 h -5 -5 v 5 5 h -5 -5 v 5 5 h -5 -5 v 5 5 h -5 -5 v 5 5 h -5 -5 v 5 5 h -5 -5 v 5 5 h -5 -5 v 5 5 h -10 -10 v 5 5 H 170 140 Z M 430,229 v -5 h -5 -5 v -15 -15 h 20 20 v 5 5 h 5 5 v 15 15 H 450 430 Z M 100,64 V 54 h 5 5 v 10 10 h -5 -5 z"
         id="path249" />
      <path
         style="fill:#f2f3f5"
         d="m 140,329 v -5 h -10 -10 v -5 -5 h -10 -10 v -5 -5 H 90 80 v -5 -5 h -5 -5 v -5 -5 h -5 -5 v -5 -5 h -5 -5 v -5 -5 h -5 -5 v -10 -10 h -5 -5 v -5 -5 h 5 5 v 5 5 h 5 5 v 5 5 h 20 20 v -5 -5 h 10 10 v -5 -5 h 10 10 v -5 -5 h 5 5 v -5 -5 h 5 5 v -15 -15 h 5 5 v -10 -10 h -5 -5 v -10 -10 h -5 -5 v -5 -5 h 5 5 v 5 5 h 5 5 v 5 5 h 10 10 v 5 5 h 5 5 v -15 -15 h -5 -5 v -5 -5 h -5 -5 v -5 -5 h -5 -5 v -5 -5 h -5 -5 V 94 84 h -5 -5 V 74 64 h -5 -5 V 54 44 h 5 5 v 5 5 h 10 10 v 5 5 h 5 5 v 5 5 h 10 10 v 5 5 h 10 10 V 74 64 h -5 -5 v -5 -5 h -5 -5 v -5 -5 h 10 10 v 5 5 h 10 10 v 5 5 h 5 5 v 5 5 h 10 10 v -5 -5 h -5 -5 v -5 -5 h -5 -5 v -5 -5 h 5 5 v 5 5 h 5 5 v 5 5 h 5 5 v 5 5 h 5 5 v 5 5 h 5 5 v 5 5 h 5 5 v 5 5 h 5 5 v 5 5 h 25 25 v 5 5 h 15 15 v 5 5 h 10 10 v 5 5 h 5 5 v 5 5 h 5 5 v 10 10 h -5 -5 v 5 5 h -20 -20 v -5 -5 h -10 -10 v 10 10 h -5 -5 v 5 5 h -10 -10 v 5 5 h -5 -5 v 5 5 h -5 -5 v 5 5 h -5 -5 v 5 5 h -5 -5 v 5 5 h -5 -5 v 5 5 h -5 -5 v 5 5 h -5 -5 v 5 5 h -5 -5 v 5 5 h -5 -5 v 5 5 h -5 -5 v 5 5 h -5 -5 v 5 5 h -10 -10 v 5 5 H 170 140 Z M 430,229 v -5 h -5 -5 v -15 -15 h 20 20 v 5 5 h 5 5 v 15 15 H 450 430 Z M 170,39 v -5 h 5 5 v 5 5 h -5 -5 z"
         id="path248" />
      <path
         style="fill:#ececec"
         d="m 140,329 v -5 h -10 -10 v -5 -5 h -10 -10 v -5 -5 H 90 80 v -5 -5 h -5 -5 v -5 -5 h -5 -5 v -5 -5 h -5 -5 v -5 -5 h -5 -5 v -5 -5 h 5 5 v 5 5 h 5 5 v 5 5 h 5 5 v 5 5 h 25 25 v -5 -5 h 10 10 v -5 -5 h 10 10 v -5 -5 h 5 5 v -5 -5 h 5 5 v -5 -5 h 5 5 v -5 -5 h 5 5 v -20 -20 h -5 -5 v -5 -5 h 15 15 v -5 -5 h -5 -5 v -5 -5 h -5 -5 v -5 -5 h -5 -5 v -5 -5 h -5 -5 v -5 -5 h -5 -5 v -5 -5 h -5 -5 v -5 -5 h -5 -5 V 94 84 h -5 -5 V 74 64 h -5 -5 v -5 -5 h 5 5 v 5 5 h 5 5 v 5 5 h 5 5 v 5 5 h 10 10 v 5 5 h 25 25 V 84 74 h -5 -5 v -5 -5 h -5 -5 v -5 -5 h -5 -5 v -5 -5 h 5 5 v 5 5 h 10 10 v 5 5 h 5 5 v 5 5 h 5 5 v 5 5 h 5 5 v 5 5 h 10 10 v -5 -5 h -5 -5 v -5 -5 h 5 5 v 5 5 h 5 5 v 5 5 h 5 5 v 5 5 h 5 5 v 5 5 h 25 25 v 5 5 h 15 15 v 5 5 h 10 10 v 5 5 h 5 5 v 5 5 h 5 5 v 10 10 h -5 -5 v 5 5 h -20 -20 v -5 -5 h -10 -10 v 10 10 h -5 -5 v 5 5 h -10 -10 v 5 5 h -5 -5 v 5 5 h -5 -5 v 5 5 h -5 -5 v 5 5 h -5 -5 v 5 5 h -5 -5 v 5 5 h -5 -5 v 5 5 h -5 -5 v 5 5 h -5 -5 v 5 5 h -5 -5 v 5 5 h -5 -5 v 5 5 h -5 -5 v 5 5 h -10 -10 v 5 5 H 170 140 Z M 430,229 v -5 h -5 -5 v -15 -15 h 20 20 v 5 5 h 5 5 v 15 15 H 450 430 Z M 170,169 v -5 h 5 5 v 5 5 h -5 -5 z"
         id="path247" />
      <path
         style="fill:#e5e5e5"
         d="m 140,329 v -5 h -10 -10 v -5 -5 h -10 -10 v -5 -5 H 90 80 v -5 -5 h -5 -5 v -5 -5 h 5 5 v 5 5 h 15 15 v 5 5 h 10 10 v 5 5 h 10 10 v -5 -5 h 15 15 v -5 -5 h 5 5 v -5 -5 h 10 10 v -5 -5 h 5 5 v -5 -5 h 5 5 v -10 -10 h 5 5 v -20 -20 h -10 -10 v -5 -5 h -5 -5 v -5 -5 h -5 -5 v -5 -5 h 10 10 v -5 -5 h -5 -5 v -5 -5 h -5 -5 v -5 -5 h -5 -5 v -5 -5 h -5 -5 v -5 -5 h -5 -5 v -5 -5 h -5 -5 v -5 -5 h -5 -5 V 94 84 h -5 -5 V 74 64 h -5 -5 v -5 -5 h 5 5 v 5 5 h 5 5 v 5 5 h 5 5 v 5 5 h 10 10 v 5 5 h 25 25 V 84 74 h -5 -5 v -5 -5 h -5 -5 v -5 -5 h -5 -5 v -5 -5 h 5 5 v 5 5 h 10 10 v 5 5 h 5 5 v 5 5 h 5 5 v 5 5 h 5 5 v 5 5 h 10 10 v -5 -5 h -5 -5 v -5 -5 h 5 5 v 5 5 h 5 5 v 5 5 h 5 5 v 5 5 h 5 5 v 5 5 h 25 25 v 5 5 h 15 15 v 5 5 h 10 10 v 5 5 h 5 5 v 5 5 h 5 5 v 10 10 h -5 -5 v 5 5 h -20 -20 v -5 -5 h -10 -10 v 10 10 h -5 -5 v 5 5 h -10 -10 v 5 5 h -5 -5 v 5 5 h -5 -5 v 5 5 h -5 -5 v 5 5 h -5 -5 v 5 5 h -5 -5 v 5 5 h -5 -5 v 5 5 h -5 -5 v 5 5 h -5 -5 v 5 5 h -5 -5 v 5 5 h -5 -5 v 5 5 h -5 -5 v 5 5 h -10 -10 v 5 5 H 170 140 Z M 430,229 v -5 h -5 -5 v -15 -15 h 20 20 v 5 5 h 5 5 v 15 15 h -20 -20 z"
         id="path246" />
      <path
         style="fill:#dbdbdb"
         d="m 140,329 v -5 h 15 15 v -5 -5 h 15 15 v -5 -5 h 5 5 v -5 -5 h 10 10 v -5 -5 h 5 5 v -5 -5 h 5 5 v -10 -10 h 5 5 v -5 -5 h 5 5 v -5 -5 h 5 5 v -5 -5 h -5 -5 v -5 -5 h -10 -10 v -5 -5 h -5 -5 v -5 -5 h -10 -10 v -5 -5 h 15 15 v -5 -5 h -10 -10 v -5 -5 h -10 -10 v -5 -5 h -5 -5 v -5 -5 h -5 -5 v -5 -5 h -5 -5 v -5 -5 h -5 -5 v -5 -5 h -5 -5 v -5 -5 h -5 -5 V 94 84 h -5 -5 v -5 -5 h 5 5 v 5 5 h 5 5 v 5 5 h 10 10 v 5 5 h 20 20 v 5 5 h 10 10 v -5 -5 h 5 5 V 94 84 h -5 -5 v -5 -5 h -5 -5 v -5 -5 h -5 -5 v -5 -5 h 5 5 v 5 5 h 5 5 v 5 5 h 5 5 v 5 5 h 5 5 v 5 5 h 5 5 v 5 5 h 5 5 v 5 5 h 10 10 v -5 -5 h -5 -5 v -5 -5 h 5 5 v 5 5 h 5 5 v 5 5 h 25 25 v 5 5 h 15 15 v 5 5 h 10 10 v 5 5 h 5 5 v 5 5 h 5 5 v 10 10 h -5 -5 v 5 5 h -20 -20 v -5 -5 h -10 -10 v 10 10 h -5 -5 v 5 5 h -10 -10 v 5 5 h -5 -5 v 5 5 h -5 -5 v 5 5 h -5 -5 v 5 5 h -5 -5 v 5 5 h -5 -5 v 5 5 h -5 -5 v 5 5 h -5 -5 v 5 5 h -5 -5 v 5 5 h -5 -5 v 5 5 h -5 -5 v 5 5 h -5 -5 v 5 5 h -10 -10 v 5 5 h -30 -30 z m -20,-10 v -5 h 5 5 v 5 5 h -5 -5 z m -20,-10 v -5 h 5 5 v 5 5 h -5 -5 z M 80,299 v -5 h 5 5 v 5 5 h -5 -5 z m 350,-70 v -5 h -5 -5 v -15 -15 h 20 20 v 5 5 h 5 5 v 15 15 h -20 -20 z"
         id="path245" />
      <path
         style="fill:#c9cbce"
         d="m 190,329 v -5 h 5 5 v 5 5 h -5 -5 z m 20,-10 v -5 h 5 5 v -5 -5 h 5 5 v -5 -5 h 5 5 v -5 -5 h 5 5 v -5 -5 h 5 5 v -5 -5 h 5 5 v -5 -5 h 5 5 v -5 -5 h 5 5 v -5 -5 h 5 5 v -5 -5 h -5 -5 v -5 -5 h -15 -15 v -5 -5 h -5 -5 v -5 -5 h 5 5 v -5 -5 h -5 -5 v -5 -5 h -10 -10 v -5 -5 h -10 -10 v -5 -5 h -5 -5 v -5 -5 h -5 -5 v -5 -5 h -5 -5 v -5 -5 h -5 -5 v -5 -5 h -5 -5 v -5 -5 h -5 -5 v -5 -5 h 5 5 v 5 5 h 10 10 v 5 5 h 15 15 v 5 5 h 15 15 v -5 -5 h 10 10 V 104 94 h 5 5 v 5 5 h 5 5 v 5 5 h 5 5 v 5 5 h 5 5 v -5 -5 h 30 30 v 5 5 h 15 15 v 5 5 h 10 10 v 5 5 h 5 5 v 5 5 h 5 5 v 10 10 h -5 -5 v 5 5 h -20 -20 v -5 -5 h -10 -10 v 10 10 h -5 -5 v 5 5 h -10 -10 v 5 5 h -5 -5 v 5 5 h -5 -5 v 5 5 h -5 -5 v 5 5 h -5 -5 v 5 5 h -5 -5 v 5 5 h -5 -5 v 5 5 h -5 -5 v 5 5 h -5 -5 v 5 5 h -5 -5 v 5 5 h -5 -5 v 5 5 h -5 -5 v 5 5 h -5 -5 z m 220,-90 v -5 h -5 -5 v -15 -15 h 20 20 v 5 5 h 5 5 v 15 15 h -20 -20 z"
         id="path244" />
      <path
         style="fill:#b5babf"
         d="m 430,229 v -5 h -5 -5 v -15 -15 h 20 20 v 5 5 h 5 5 v 15 15 H 450 430 Z M 300,219 v -5 h -15 -15 v -5 -5 h 10 10 v -5 -5 h -10 -10 v -5 -5 h -10 -10 v -5 -5 h -10 -10 v -5 -5 h -10 -10 v -5 -5 h -5 -5 v -5 -5 h -5 -5 v -5 -5 h -5 -5 v -5 -5 h -5 -5 v -5 -5 h -5 -5 v -5 -5 h 5 5 v 5 5 h 10 10 v 5 5 h 15 15 v 5 5 h 10 10 v -5 -5 h 10 10 v -5 -5 h 5 5 v -5 -5 h 5 5 v 5 5 h 5 5 v 5 5 h 5 5 v -5 -5 h 30 30 v 5 5 h 15 15 v 5 5 h 10 10 v 5 5 h 5 5 v 5 5 h 5 5 v 10 10 h -5 -5 v 5 5 h -20 -20 v -5 -5 h -10 -10 v 10 10 h -5 -5 v 5 5 h -10 -10 v 5 5 h -5 -5 v 5 5 h -10 -10 z"
         id="path243" />
      <path
         style="fill:#a1a4a6"
         d="m 430,229 v -5 h -5 -5 v -15 -15 h 20 20 v 5 5 h 5 5 v 15 15 H 450 430 Z M 310,219 v -5 h -5 -5 v -10 -10 h -15 -15 v -5 -5 h -10 -10 v -5 -5 h -10 -10 v -5 -5 h -10 -10 v -5 -5 h -5 -5 v -5 -5 h -5 -5 v -5 -5 h -5 -5 v -5 -5 h -5 -5 v -5 -5 h -5 -5 v -5 -5 h 5 5 v 5 5 h 10 10 v 5 5 h 15 15 v 5 5 h 15 15 v -5 -5 h 15 15 v -5 -5 h 5 5 v 5 5 h 5 5 v -5 -5 h 30 30 v 5 5 h 15 15 v 5 5 h 10 10 v 5 5 h 5 5 v 5 5 h 5 5 v 10 10 h -5 -5 v 5 5 h -20 -20 v -5 -5 h -10 -10 v 10 10 h -5 -5 v 5 5 h -10 -10 v 5 5 h -5 -5 v 5 5 h -5 -5 z"
         id="path242" />
      <path
         style="fill:#ab621d"
         d="m 430,229 v -5 h -5 -5 v -15 -15 h 20 20 v 5 5 h 5 5 v 15 15 H 450 430 Z M 300,199 v -5 h -15 -15 v -5 -5 h -10 -10 v -5 -5 h -10 -10 v -5 -5 h -10 -10 v -5 -5 h -5 -5 v -5 -5 h -5 -5 v -5 -5 h -5 -5 v -5 -5 h -5 -5 v -5 -5 h -5 -5 v -5 -5 h 5 5 v 5 5 h 10 10 v 5 5 h 15 15 v 5 5 h 15 15 v -5 -5 h 25 25 v -5 -5 h 30 30 v 5 5 h 15 15 v 5 5 h 10 10 v 5 5 h 5 5 v 5 5 h 5 5 v 10 10 h -5 -5 v 5 5 h -20 -20 v -5 -5 h -10 -10 v 10 10 h -5 -5 v 5 5 h -25 -25 z"
         id="path241" />
      <path
         style="fill:#9f5a1a"
         d="m 430,229 v -5 h -5 -5 v -15 -15 h 5 5 v 5 5 h 5 5 v 5 5 h 10 10 v -5 -5 h -5 -5 v -5 -5 h 5 5 v 5 5 h 5 5 v 15 15 H 450 430 Z M 300,199 v -5 h -15 -15 v -5 -5 h -10 -10 v -5 -5 h -10 -10 v -5 -5 h -10 -10 v -5 -5 h -5 -5 v -5 -5 h -5 -5 v -5 -5 h -5 -5 v -5 -5 h -5 -5 v -5 -5 h -5 -5 v -5 -5 h 5 5 v 5 5 h 10 10 v 5 5 h 15 15 v 5 5 h 15 15 v -5 -5 h 25 25 v -5 -5 h 5 5 v 5 5 h 10 10 v -5 -5 h 15 15 v 5 5 h 15 15 v 5 5 h 10 10 v 5 5 h 5 5 v 5 5 h 5 5 v 10 10 h -5 -5 v 5 5 h -20 -20 v -5 -5 h -10 -10 v 10 10 h -5 -5 v 5 5 h -25 -25 z"
         id="path240" />
      <path
         style="fill:#905015"
         d="m 430,229 v -5 h -5 -5 v -10 -10 h 5 5 v 5 5 h 5 5 v 5 5 h 10 10 v -5 -5 h 5 5 v 10 10 H 450 430 Z M 300,199 v -5 h -15 -15 v -5 -5 h -10 -10 v -5 -5 h -10 -10 v -5 -5 h -10 -10 v -5 -5 h -5 -5 v -5 -5 h -5 -5 v -5 -5 h -5 -5 v -5 -5 h -5 -5 v -5 -5 h -5 -5 v -5 -5 h 5 5 v 5 5 h 10 10 v 5 5 h 15 15 v 5 5 h 15 15 v -5 -5 h 25 25 v -5 -5 h 5 5 v 10 10 h 10 10 v -5 -5 h 5 5 v -5 -5 h 10 10 v 5 5 h 15 15 v 5 5 h 10 10 v 5 5 h 5 5 v 5 5 h 5 5 v 10 10 h -5 -5 v 5 5 h -20 -20 v -5 -5 h -10 -10 v 10 10 h -5 -5 v 5 5 h -25 -25 z"
         id="path239" />
      <path
         style="fill:#8b4b12"
         d="m 430,229 v -5 h -5 -5 v -10 -10 h 5 5 v 5 5 h 5 5 v 5 5 h 10 10 v -5 -5 h 5 5 v 10 10 H 450 430 Z M 300,199 v -5 h -15 -15 v -5 -5 h -10 -10 v -5 -5 h -10 -10 v -5 -5 h -10 -10 v -5 -5 h -5 -5 v -5 -5 h -5 -5 v -5 -5 h -5 -5 v -5 -5 h -5 -5 v -5 -5 h -5 -5 v -5 -5 h 5 5 v 5 5 h 10 10 v 5 5 h 15 15 v 5 5 h 15 15 v -5 -5 h 20 20 v 5 5 h 5 5 v 5 5 h 15 15 v -5 -5 h 5 5 v -5 -5 h 25 25 v 5 5 h 10 10 v 5 5 h 5 5 v 5 5 h 5 5 v 10 10 h -5 -5 v 5 5 h -20 -20 v -5 -5 h -10 -10 v 10 10 h -5 -5 v 5 5 h -25 -25 z"
         id="path238" />
      <path
         style="fill:#834710"
         d="m 430,229 v -5 h -5 -5 v -10 -10 h 5 5 v 5 5 h 5 5 v 5 5 h 10 10 v -5 -5 h 5 5 v 10 10 H 450 430 Z M 300,199 v -5 h -15 -15 v -5 -5 h -10 -10 v -5 -5 h -10 -10 v -5 -5 h -10 -10 v -5 -5 h -5 -5 v -5 -5 h -5 -5 v -5 -5 h -5 -5 v -5 -5 h -5 -5 v -5 -5 h -5 -5 v -5 -5 h 5 5 v 5 5 h 10 10 v 5 5 h 15 15 v 5 5 h 15 15 v -5 -5 h 15 15 v 5 5 h 5 5 v 5 5 h 25 25 v -5 -5 h 15 15 v -5 -5 h 10 10 v 5 5 h 10 10 v 5 5 h 5 5 v 5 5 h 5 5 v 10 10 h -5 -5 v 5 5 h -20 -20 v -5 -5 h -10 -10 v 10 10 h -5 -5 v 5 5 h -25 -25 z"
         id="path237" />
      <path
         style="fill:#7e440e"
         d="m 430,229 v -5 h -5 -5 v -5 -5 h 5 5 v 5 5 h 5 5 v 5 5 h -5 -5 z m 30,0 v -5 h 5 5 v 5 5 h -5 -5 z M 300,199 v -5 h -15 -15 v -5 -5 h -10 -10 v -5 -5 h -10 -10 v -5 -5 h -10 -10 v -5 -5 h -5 -5 v -5 -5 h -5 -5 v -5 -5 h -5 -5 v -5 -5 h -5 -5 v -5 -5 h -5 -5 v -5 -5 h 5 5 v 5 5 h 10 10 v 5 5 h 15 15 v 5 5 h 15 15 v -5 -5 h 10 10 v 10 10 h 5 5 v 5 5 h 30 30 v -5 -5 h 25 25 v 5 5 h 5 5 v -10 -10 h 5 5 v 5 5 h 5 5 v 5 5 h 5 5 v 10 10 h -5 -5 v 5 5 h -20 -20 v -5 -5 h -10 -10 v 10 10 h -5 -5 v 5 5 h -25 -25 z"
         id="path236" />
      <path
         style="fill:#773f0e"
         d="m 430,229 v -5 h -5 -5 v -5 -5 h 5 5 v 5 5 h 5 5 v 5 5 h -5 -5 z m 30,0 v -5 h 5 5 v 5 5 h -5 -5 z M 300,199 v -5 h -15 -15 v -5 -5 h -10 -10 v -5 -5 h -10 -10 v -5 -5 h -10 -10 v -5 -5 h -5 -5 v -5 -5 h -5 -5 v -5 -5 h -5 -5 v -5 -5 h -5 -5 v -5 -5 h -5 -5 v -5 -5 h 5 5 v 5 5 h 10 10 v 5 5 h 15 15 v 5 5 h 20 20 v 10 10 h 10 10 v 5 5 h 25 25 v -5 -5 h 30 30 v 5 5 h 15 15 v -5 -5 h -5 -5 v -5 -5 h 5 5 v 5 5 h 5 5 v 10 10 h -5 -5 v 5 5 h -20 -20 v -5 -5 h -10 -10 v 10 10 h -5 -5 v 5 5 h -25 -25 z"
         id="path235" />
      <path
         style="fill:#723c0b"
         d="m 420,219 v -5 h 5 5 v 5 5 h -5 -5 z M 300,199 v -5 h -15 -15 v -5 -5 h -10 -10 v -5 -5 h -10 -10 v -5 -5 h -10 -10 v -5 -5 h -5 -5 v -5 -5 h -5 -5 v -5 -5 h -5 -5 v -5 -5 h -5 -5 v -5 -5 h -5 -5 v -5 -5 h 5 5 v 5 5 h 10 10 v 5 5 h 15 15 v 5 5 h 20 20 v 10 10 h 10 10 v 5 5 h 25 25 v -5 -5 h 30 30 v 5 5 h 15 15 v -5 -5 h -5 -5 v -5 -5 h 5 5 v 5 5 h 5 5 v 10 10 h -5 -5 v 5 5 h -20 -20 v -5 -5 h -10 -10 v 10 10 h -5 -5 v 5 5 h -25 -25 z"
         id="path234" />
      <path
         style="fill:#603005"
         d="m 420,219 v -5 h 5 5 v 5 5 h -5 -5 z M 300,199 v -5 h -15 -15 v -5 -5 h -10 -10 v -5 -5 h -10 -10 v -5 -5 h -10 -10 v -5 -5 h -5 -5 v -5 -5 h -5 -5 v -5 -5 h -5 -5 v -5 -5 h -5 -5 v -5 -5 h -5 -5 v -5 -5 h 5 5 v 5 5 h 10 10 v 5 5 h 15 15 v 5 5 h 15 15 v 5 5 h -5 -5 v 5 5 h 5 5 v 5 5 h 10 10 v 5 5 h 40 40 v -5 -5 h 15 15 v 5 5 h 20 20 v -5 -5 h 5 5 v 5 5 h -5 -5 v 5 5 h -20 -20 v -5 -5 h -10 -10 v 10 10 h -5 -5 v 5 5 h -25 -25 z"
         id="path233" />
      <path
         style="fill:#572b02"
         d="m 420,219 v -5 h 5 5 v 5 5 h -5 -5 z M 300,199 v -5 h -15 -15 v -5 -5 h -10 -10 v -5 -5 h -10 -10 v -5 -5 h -10 -10 v -5 -5 h -5 -5 v -5 -5 h -5 -5 v -5 -5 h -5 -5 v -5 -5 h -5 -5 v -5 -5 h -5 -5 v -5 -5 h 5 5 v 5 5 h 10 10 v 5 5 h 15 15 v 5 5 h 10 10 v 5 5 h -5 -5 v 5 5 h 5 5 v 5 5 h 10 10 v 5 5 h 10 10 v 5 5 h 35 35 v -5 -5 h 5 5 v 10 10 h -5 -5 v 5 5 h -25 -25 z"
         id="path232" />
      <path
         style="fill:#562902"
         d="m 420,219 v -5 h 5 5 v 5 5 h -5 -5 z M 300,199 v -5 h 25 25 v -5 -5 h 5 5 v 5 5 h -5 -5 v 5 5 h -25 -25 z m -30,-10 v -5 h -10 -10 v -5 -5 h -10 -10 v -5 -5 h -10 -10 v -5 -5 h -5 -5 v -5 -5 h -5 -5 v -5 -5 h -5 -5 v -5 -5 h -5 -5 v -5 -5 h -5 -5 v -5 -5 h 5 5 v 5 5 h 5 5 v 5 5 h 20 20 v 5 5 h -5 -5 v 5 5 h 5 5 v 5 5 h 5 5 v 5 5 h 10 10 v 5 5 h 10 10 v 5 5 h 10 10 v 5 5 h -10 -10 z"
         id="path231" />
      <path
         style="fill:#4c2300"
         d="m 300,199 v -5 h 25 25 v -5 -5 h 5 5 v 5 5 h -5 -5 v 5 5 h -25 -25 z m -30,-10 v -5 h -10 -10 v -5 -5 h -10 -10 v -5 -5 h -10 -10 v -5 -5 h -5 -5 v -5 -5 h -5 -5 v -5 -5 h -5 -5 v -5 -5 h -5 -5 v -5 -5 h -5 -5 v -5 -5 h 5 5 v 5 5 h 5 5 v 5 5 h 20 20 v 5 5 h -5 -5 v 5 5 h 5 5 v 5 5 h 5 5 v 5 5 h 10 10 v 5 5 h 10 10 v 5 5 h 10 10 v 5 5 h -10 -10 z"
         id="path230" />
    </g>
  </g>
</svg>
